# Blender 4.2.1 LTS
# www.blender.org
mtllib discoBall.mtl
o Sphere
v 0.000000 -0.866025 -0.500000
v 0.000000 1.000000 0.000000
v 0.152130 0.965926 -0.209389
v 0.293893 0.866025 -0.404509
v 0.415627 0.707107 -0.572061
v 0.509037 0.500000 -0.700629
v 0.567757 0.258819 -0.781450
v 0.587785 0.000000 -0.809017
v 0.567757 -0.258819 -0.781450
v 0.509037 -0.500000 -0.700629
v 0.415627 -0.707107 -0.572061
v 0.293893 -0.866025 -0.404509
v 0.152130 -0.965926 -0.209389
v 0.246152 0.965926 -0.079979
v 0.475528 0.866025 -0.154509
v 0.672498 0.707107 -0.218508
v 0.823639 0.500000 -0.267617
v 0.918650 0.258819 -0.298488
v 0.951057 0.000000 -0.309017
v 0.918650 -0.258819 -0.298488
v 0.823639 -0.500000 -0.267617
v 0.672498 -0.707107 -0.218508
v 0.475528 -0.866025 -0.154509
v 0.246152 -0.965926 -0.079979
v 0.246152 0.965926 0.079979
v 0.475528 0.866025 0.154508
v 0.672498 0.707107 0.218508
v 0.823639 0.500000 0.267617
v 0.918650 0.258819 0.298487
v 0.951057 0.000000 0.309017
v 0.918650 -0.258819 0.298487
v 0.823639 -0.500000 0.267617
v 0.672498 -0.707107 0.218508
v 0.475528 -0.866025 0.154508
v 0.246152 -0.965926 0.079979
v 0.152130 0.965926 0.209389
v 0.293893 0.866025 0.404509
v 0.415627 0.707107 0.572061
v 0.509037 0.500000 0.700629
v 0.567757 0.258819 0.781450
v 0.587785 0.000000 0.809017
v 0.567757 -0.258819 0.781450
v 0.509037 -0.500000 0.700629
v 0.415627 -0.707107 0.572061
v 0.293893 -0.866025 0.404509
v 0.152130 -0.965926 0.209389
v 0.000000 0.965926 0.258819
v 0.000000 0.866025 0.500000
v 0.000000 0.707107 0.707107
v 0.000000 0.500000 0.866025
v 0.000000 0.258819 0.965926
v 0.000000 0.000000 1.000000
v 0.000000 -0.258819 0.965926
v 0.000000 -0.500000 0.866025
v 0.000000 -0.707107 0.707107
v 0.000000 -0.866025 0.500000
v 0.000000 -0.965926 0.258819
v -0.152130 0.965926 0.209389
v -0.293893 0.866025 0.404509
v -0.415627 0.707107 0.572061
v -0.509037 0.500000 0.700629
v -0.567757 0.258819 0.781451
v -0.587785 0.000000 0.809017
v -0.567757 -0.258819 0.781451
v -0.509037 -0.500000 0.700629
v -0.415627 -0.707107 0.572061
v -0.293893 -0.866025 0.404509
v -0.152130 -0.965926 0.209389
v -0.246152 0.965926 0.079979
v -0.475528 0.866025 0.154509
v -0.672498 0.707107 0.218508
v -0.823639 0.500000 0.267617
v -0.918650 0.258819 0.298488
v -0.951057 0.000000 0.309017
v -0.918650 -0.258819 0.298488
v -0.823639 -0.500000 0.267617
v -0.672498 -0.707107 0.218508
v -0.475528 -0.866025 0.154509
v -0.246152 -0.965926 0.079979
v -0.246152 0.965926 -0.079979
v -0.475528 0.866025 -0.154508
v -0.672498 0.707107 -0.218508
v -0.823639 0.500000 -0.267617
v -0.918650 0.258819 -0.298487
v -0.951057 0.000000 -0.309017
v -0.918650 -0.258819 -0.298487
v -0.823639 -0.500000 -0.267617
v -0.672498 -0.707107 -0.218508
v -0.475528 -0.866025 -0.154508
v -0.246152 -0.965926 -0.079979
v -0.152130 0.965926 -0.209389
v -0.293893 0.866025 -0.404509
v -0.415627 0.707107 -0.572061
v -0.509037 0.500000 -0.700629
v -0.567757 0.258819 -0.781450
v -0.587785 0.000000 -0.809017
v -0.567757 -0.258819 -0.781450
v -0.509037 -0.500000 -0.700629
v -0.415627 -0.707107 -0.572061
v -0.293893 -0.866025 -0.404509
v -0.152130 -0.965926 -0.209389
v -0.000000 0.965926 -0.258819
v -0.000000 0.866025 -0.500000
v 0.000000 0.707107 -0.707107
v -0.000000 0.500000 -0.866025
v -0.000000 0.258819 -0.965926
v -0.000000 0.000000 -1.000000
v -0.000000 -0.258819 -0.965926
v -0.000000 -0.500000 -0.866025
v 0.000000 -0.707107 -0.707107
v -0.000000 -0.965926 -0.258819
v 0.000000 -1.000000 0.000000
vn 0.2875 -0.3665 -0.8849
vn 0.2875 0.3665 -0.8849
vn 0.0424 -0.9906 -0.1304
vn 0.1234 0.9168 -0.3798
vn 0.2496 -0.5895 -0.7682
vn 0.3066 0.1242 -0.9437
vn 0.1940 0.7783 -0.5972
vn 0.1940 -0.7783 -0.5972
vn 0.3066 -0.1242 -0.9437
vn 0.2496 0.5895 -0.7682
vn 0.1234 -0.9168 -0.3798
vn 0.0424 0.9906 -0.1304
vn 0.5080 0.7783 -0.3691
vn 0.5080 -0.7783 -0.3691
vn 0.8027 -0.1242 -0.5832
vn 0.6535 0.5895 -0.4748
vn 0.3230 -0.9168 -0.2347
vn 0.1109 0.9906 -0.0806
vn 0.7527 -0.3665 -0.5469
vn 0.7527 0.3665 -0.5469
vn 0.1109 -0.9906 -0.0806
vn 0.3230 0.9168 -0.2347
vn 0.6535 -0.5895 -0.4748
vn 0.8027 0.1242 -0.5832
vn 0.9304 0.3665 -0.0000
vn 0.1371 -0.9906 -0.0000
vn 0.3993 0.9168 -0.0000
vn 0.8078 -0.5895 -0.0000
vn 0.9923 0.1242 -0.0000
vn 0.6279 0.7783 -0.0000
vn 0.6279 -0.7783 -0.0000
vn 0.9923 -0.1242 -0.0000
vn 0.8078 0.5895 -0.0000
vn 0.3993 -0.9168 -0.0000
vn 0.1371 0.9906 -0.0000
vn 0.9304 -0.3665 -0.0000
vn 0.6535 0.5895 0.4748
vn 0.3230 -0.9168 0.2347
vn 0.1109 0.9906 0.0806
vn 0.7527 -0.3665 0.5469
vn 0.7527 0.3665 0.5469
vn 0.1109 -0.9906 0.0806
vn 0.3230 0.9168 0.2347
vn 0.6535 -0.5895 0.4748
vn 0.8027 0.1242 0.5832
vn 0.5080 0.7783 0.3691
vn 0.5080 -0.7783 0.3691
vn 0.8027 -0.1242 0.5832
vn 0.3066 0.1242 0.9437
vn 0.1940 0.7783 0.5972
vn 0.1940 -0.7783 0.5972
vn 0.3066 -0.1242 0.9437
vn 0.2496 0.5895 0.7682
vn 0.1234 -0.9168 0.3798
vn 0.0424 0.9906 0.1304
vn 0.2875 -0.3665 0.8849
vn 0.2875 0.3665 0.8849
vn 0.0424 -0.9906 0.1304
vn 0.1234 0.9168 0.3798
vn 0.2496 -0.5895 0.7682
vn -0.2875 0.3665 0.8849
vn -0.0424 -0.9906 0.1304
vn -0.1234 0.9168 0.3798
vn -0.2496 -0.5895 0.7682
vn -0.3066 0.1242 0.9437
vn -0.1940 0.7783 0.5972
vn -0.1940 -0.7783 0.5972
vn -0.3066 -0.1242 0.9437
vn -0.2496 0.5895 0.7682
vn -0.1234 -0.9168 0.3798
vn -0.0424 0.9906 0.1304
vn -0.2875 -0.3665 0.8849
vn -0.8027 -0.1242 0.5832
vn -0.6535 0.5895 0.4748
vn -0.3230 -0.9168 0.2347
vn -0.1109 0.9906 0.0806
vn -0.7527 -0.3665 0.5469
vn -0.7527 0.3665 0.5469
vn -0.1109 -0.9906 0.0806
vn -0.3230 0.9168 0.2347
vn -0.6535 -0.5895 0.4748
vn -0.8027 0.1242 0.5832
vn -0.5080 0.7783 0.3691
vn -0.5080 -0.7783 0.3691
vn -0.9923 0.1242 -0.0000
vn -0.6279 0.7783 -0.0000
vn -0.6279 -0.7783 -0.0000
vn -0.9923 -0.1242 -0.0000
vn -0.8078 0.5895 -0.0000
vn -0.3993 -0.9168 -0.0000
vn -0.1371 0.9906 -0.0000
vn -0.9304 -0.3665 -0.0000
vn -0.9304 0.3665 -0.0000
vn -0.1371 -0.9906 -0.0000
vn -0.3993 0.9168 -0.0000
vn -0.8078 -0.5895 -0.0000
vn -0.7527 -0.3665 -0.5469
vn -0.7527 0.3665 -0.5469
vn -0.1109 -0.9906 -0.0806
vn -0.3230 0.9168 -0.2347
vn -0.6535 -0.5895 -0.4748
vn -0.8027 0.1242 -0.5832
vn -0.5080 0.7783 -0.3691
vn -0.5080 -0.7783 -0.3691
vn -0.8027 -0.1242 -0.5832
vn -0.6535 0.5895 -0.4748
vn -0.3230 -0.9168 -0.2347
vn -0.1109 0.9906 -0.0806
vn -0.3066 -0.1242 -0.9437
vn -0.2496 0.5895 -0.7682
vn -0.1234 -0.9168 -0.3798
vn -0.0424 0.9906 -0.1304
vn -0.2875 -0.3665 -0.8849
vn -0.2875 0.3665 -0.8849
vn -0.0424 -0.9906 -0.1304
vn -0.1234 0.9168 -0.3798
vn -0.2496 -0.5895 -0.7682
vn -0.3066 0.1242 -0.9437
vn -0.1940 0.7783 -0.5972
vn -0.1940 -0.7783 -0.5972
vt 0.700000 0.416667
vt 0.600000 0.333333
vt 0.700000 0.333333
vt 0.700000 0.666667
vt 0.600000 0.583333
vt 0.700000 0.583333
vt 0.650000 0.000000
vt 0.700000 0.083333
vt 0.600000 0.083333
vt 0.700000 0.916667
vt 0.600000 0.833333
vt 0.700000 0.833333
vt 0.600000 0.250000
vt 0.700000 0.250000
vt 0.600000 0.500000
vt 0.700000 0.500000
vt 0.700000 0.750000
vt 0.600000 0.750000
vt 0.600000 0.166667
vt 0.700000 0.166667
vt 0.600000 0.416667
vt 0.600000 0.666667
vt 0.650000 1.000000
vt 0.600000 0.916667
vt 0.500000 0.750000
vt 0.500000 0.166667
vt 0.500000 0.416667
vt 0.500000 0.666667
vt 0.500000 0.083333
vt 0.550000 1.000000
vt 0.500000 0.916667
vt 0.500000 0.333333
vt 0.500000 0.583333
vt 0.550000 0.000000
vt 0.500000 0.833333
vt 0.500000 0.250000
vt 0.500000 0.500000
vt 0.400000 0.583333
vt 0.450000 0.000000
vt 0.400000 0.083333
vt 0.400000 0.833333
vt 0.400000 0.250000
vt 0.400000 0.500000
vt 0.400000 0.750000
vt 0.400000 0.166667
vt 0.400000 0.416667
vt 0.400000 0.666667
vt 0.450000 1.000000
vt 0.400000 0.916667
vt 0.400000 0.333333
vt 0.300000 0.666667
vt 0.300000 0.083333
vt 0.350000 1.000000
vt 0.300000 0.916667
vt 0.300000 0.333333
vt 0.300000 0.583333
vt 0.350000 0.000000
vt 0.300000 0.833333
vt 0.300000 0.250000
vt 0.300000 0.500000
vt 0.300000 0.750000
vt 0.300000 0.166667
vt 0.300000 0.416667
vt 0.200000 0.583333
vt 0.200000 0.500000
vt 0.200000 0.750000
vt 0.200000 0.166667
vt 0.200000 0.416667
vt 0.200000 0.666667
vt 0.200000 0.083333
vt 0.250000 1.000000
vt 0.200000 0.916667
vt 0.200000 0.333333
vt 0.250000 0.000000
vt 0.200000 0.833333
vt 0.200000 0.250000
vt 0.100000 0.583333
vt 0.150000 0.000000
vt 0.100000 0.083333
vt 0.100000 0.833333
vt 0.100000 0.333333
vt 0.100000 0.250000
vt 0.100000 0.500000
vt 0.100000 0.750000
vt 0.100000 0.166667
vt 0.100000 0.416667
vt 0.100000 0.666667
vt 0.150000 1.000000
vt 0.100000 0.916667
vt 0.000000 0.416667
vt 0.000000 0.666667
vt 0.000000 0.083333
vt 0.050000 1.000000
vt 0.000000 0.916667
vt 0.000000 0.333333
vt 0.000000 0.583333
vt 0.050000 0.000000
vt 0.000000 0.833333
vt 0.000000 0.250000
vt 0.000000 0.500000
vt 0.000000 0.750000
vt 0.000000 0.166667
vt 1.000000 0.583333
vt 0.900000 0.500000
vt 1.000000 0.500000
vt 1.000000 0.750000
vt 0.900000 0.833333
vt 0.900000 0.750000
vt 1.000000 0.250000
vt 0.900000 0.166667
vt 1.000000 0.166667
vt 0.900000 0.416667
vt 1.000000 0.416667
vt 0.900000 0.666667
vt 1.000000 0.666667
vt 0.900000 0.083333
vt 1.000000 0.083333
vt 1.000000 0.916667
vt 0.950000 1.000000
vt 0.900000 0.916667
vt 0.900000 0.333333
vt 1.000000 0.333333
vt 0.900000 0.583333
vt 0.950000 0.000000
vt 1.000000 0.833333
vt 0.900000 0.250000
vt 0.800000 0.416667
vt 0.800000 0.333333
vt 0.800000 0.583333
vt 0.850000 0.000000
vt 0.800000 0.083333
vt 0.800000 0.833333
vt 0.800000 0.250000
vt 0.800000 0.500000
vt 0.800000 0.750000
vt 0.800000 0.166667
vt 0.800000 0.666667
vt 0.850000 1.000000
vt 0.800000 0.916667
vt 0.750000 1.000000
vt 0.750000 0.000000
s 0
usemtl Material.001
f 41/60/49 51/64/49 52/65/49
f 37/58/50 49/66/50 38/61/50
f 44/59/51 56/67/51 45/62/51
f 41/60/52 53/68/52 42/63/52
f 38/61/53 50/69/53 39/51/53
f 45/62/54 57/70/54 46/52/54
f 36/54/55 2/71/55 47/72/55
f 42/63/56 54/73/56 43/55/56
f 39/51/57 51/64/57 40/56/57
f 112/74/58 46/52/58 57/70/58
f 36/54/59 48/75/59 37/58/59
f 43/55/60 55/76/60 44/59/60
f 96/134/109 108/1/109 97/127/109
f 93/135/110 105/4/110 94/137/110
f 101/131/111 1/20/111 111/8/111
f 91/139/112 2/140/112 102/10/112
f 98/128/113 108/1/113 109/3/113
f 94/137/114 106/6/114 95/129/114
f 112/141/115 101/131/115 111/8/115
f 91/139/116 103/12/116 92/132/116
f 98/128/117 110/14/117 99/133/117
f 95/129/118 107/16/118 96/134/118
f 92/132/119 104/17/119 93/135/119
f 99/133/120 1/20/120 100/136/120
f 41/60/49 40/56/49 51/64/49
f 37/58/50 48/75/50 49/66/50
f 44/59/51 55/76/51 56/67/51
f 41/60/52 52/65/52 53/68/52
f 38/61/53 49/66/53 50/69/53
f 45/62/54 56/67/54 57/70/54
f 42/63/56 53/68/56 54/73/56
f 39/51/57 50/69/57 51/64/57
f 36/54/59 47/72/59 48/75/59
f 43/55/60 54/73/60 55/76/60
f 96/134/109 107/16/109 108/1/109
f 93/135/110 104/17/110 105/4/110
f 101/131/111 100/136/111 1/20/111
f 98/128/113 97/127/113 108/1/113
f 94/137/114 105/4/114 106/6/114
f 91/139/116 102/10/116 103/12/116
f 98/128/117 109/3/117 110/14/117
f 95/129/118 106/6/118 107/16/118
f 92/132/119 103/12/119 104/17/119
f 99/133/120 110/14/120 1/20/120
usemtl Material.002
f 108/1/1 10/2/1 109/3/1
f 105/4/2 7/5/2 106/6/2
f 112/7/3 111/8/3 13/9/3
f 102/10/4 4/11/4 103/12/4
f 109/3/5 11/13/5 110/14/5
f 106/6/6 8/15/6 107/16/6
f 104/17/7 4/11/7 5/18/7
f 110/14/8 12/19/8 1/20/8
f 107/16/9 9/21/9 108/1/9
f 104/17/10 6/22/10 105/4/10
f 1/20/11 13/9/11 111/8/11
f 102/10/12 2/23/12 3/24/12
f 50/69/61 62/77/61 51/64/61
f 112/78/62 57/70/62 68/79/62
f 47/72/63 59/80/63 48/75/63
f 55/76/64 65/81/64 66/82/64
f 51/64/65 63/83/65 52/65/65
f 48/75/66 60/84/66 49/66/66
f 55/76/67 67/85/67 56/67/67
f 52/65/68 64/86/68 53/68/68
f 49/66/69 61/87/69 50/69/69
f 56/67/70 68/79/70 57/70/70
f 47/72/71 2/88/71 58/89/71
f 53/68/72 65/81/72 54/73/72
f 108/1/1 9/21/1 10/2/1
f 105/4/2 6/22/2 7/5/2
f 102/10/4 3/24/4 4/11/4
f 109/3/5 10/2/5 11/13/5
f 106/6/6 7/5/6 8/15/6
f 104/17/7 103/12/7 4/11/7
f 110/14/8 11/13/8 12/19/8
f 107/16/9 8/15/9 9/21/9
f 104/17/10 5/18/10 6/22/10
f 1/20/11 12/19/11 13/9/11
f 50/69/61 61/87/61 62/77/61
f 47/72/63 58/89/63 59/80/63
f 55/76/64 54/73/64 65/81/64
f 51/64/65 62/77/65 63/83/65
f 48/75/66 59/80/66 60/84/66
f 55/76/67 66/82/67 67/85/67
f 52/65/68 63/83/68 64/86/68
f 49/66/69 60/84/69 61/87/69
f 56/67/70 67/85/70 68/79/70
f 53/68/72 64/86/72 65/81/72
usemtl Material.003
f 27/44/37 39/51/37 28/47/37
f 34/45/38 46/52/38 35/40/38
f 25/49/39 2/53/39 36/54/39
f 31/46/40 43/55/40 32/50/40
f 28/47/41 40/56/41 29/38/41
f 112/57/42 35/40/42 46/52/42
f 25/49/43 37/58/43 26/41/43
f 32/50/44 44/59/44 33/42/44
f 30/43/45 40/56/45 41/60/45
f 26/41/46 38/61/46 27/44/46
f 33/42/47 45/62/47 34/45/47
f 30/43/48 42/63/48 31/46/48
f 87/121/97 97/127/97 98/128/97
f 83/114/98 95/129/98 84/123/98
f 112/130/99 90/116/99 101/131/99
f 80/120/100 92/132/100 81/107/100
f 87/121/101 99/133/101 88/126/101
f 84/123/102 96/134/102 85/104/102
f 82/108/103 92/132/103 93/135/103
f 88/126/104 100/136/104 89/110/104
f 85/104/105 97/127/105 86/112/105
f 82/108/106 94/137/106 83/114/106
f 89/110/107 101/131/107 90/116/107
f 80/120/108 2/138/108 91/139/108
f 27/44/37 38/61/37 39/51/37
f 34/45/38 45/62/38 46/52/38
f 31/46/40 42/63/40 43/55/40
f 28/47/41 39/51/41 40/56/41
f 25/49/43 36/54/43 37/58/43
f 32/50/44 43/55/44 44/59/44
f 30/43/45 29/38/45 40/56/45
f 26/41/46 37/58/46 38/61/46
f 33/42/47 44/59/47 45/62/47
f 30/43/48 41/60/48 42/63/48
f 87/121/97 86/112/97 97/127/97
f 83/114/98 94/137/98 95/129/98
f 80/120/100 91/139/100 92/132/100
f 87/121/101 98/128/101 99/133/101
f 84/123/102 95/129/102 96/134/102
f 82/108/103 81/107/103 92/132/103
f 88/126/104 99/133/104 100/136/104
f 85/104/105 96/134/105 97/127/105
f 82/108/106 93/135/106 94/137/106
f 89/110/107 100/136/107 101/131/107
usemtl Material.004
f 17/28/25 29/38/25 18/33/25
f 112/39/26 24/29/26 35/40/26
f 14/31/27 26/41/27 15/35/27
f 21/32/28 33/42/28 22/36/28
f 18/33/29 30/43/29 19/37/29
f 15/35/30 27/44/30 16/25/30
f 22/36/31 34/45/31 23/26/31
f 19/37/32 31/46/32 20/27/32
f 17/28/33 27/44/33 28/47/33
f 23/26/34 35/40/34 24/29/34
f 14/31/35 2/48/35 25/49/35
f 20/27/36 32/50/36 21/32/36
f 73/103/85 85/104/85 74/105/85
f 71/106/86 81/107/86 82/108/86
f 77/109/87 89/110/87 78/111/87
f 74/105/88 86/112/88 75/113/88
f 71/106/89 83/114/89 72/115/89
f 78/111/90 90/116/90 79/117/90
f 69/118/91 2/119/91 80/120/91
f 75/113/92 87/121/92 76/122/92
f 72/115/93 84/123/93 73/103/93
f 112/124/94 79/117/94 90/116/94
f 69/118/95 81/107/95 70/125/95
f 76/122/96 88/126/96 77/109/96
f 17/28/25 28/47/25 29/38/25
f 14/31/27 25/49/27 26/41/27
f 21/32/28 32/50/28 33/42/28
f 18/33/29 29/38/29 30/43/29
f 15/35/30 26/41/30 27/44/30
f 22/36/31 33/42/31 34/45/31
f 19/37/32 30/43/32 31/46/32
f 17/28/33 16/25/33 27/44/33
f 23/26/34 34/45/34 35/40/34
f 20/27/36 31/46/36 32/50/36
f 73/103/85 84/123/85 85/104/85
f 71/106/86 70/125/86 81/107/86
f 77/109/87 88/126/87 89/110/87
f 74/105/88 85/104/88 86/112/88
f 71/106/89 82/108/89 83/114/89
f 78/111/90 89/110/90 90/116/90
f 75/113/92 86/112/92 87/121/92
f 72/115/93 83/114/93 84/123/93
f 69/118/95 80/120/95 81/107/95
f 76/122/96 87/121/96 88/126/96
usemtl Material.005
f 4/11/13 16/25/13 5/18/13
f 11/13/14 23/26/14 12/19/14
f 8/15/15 20/27/15 9/21/15
f 5/18/16 17/28/16 6/22/16
f 12/19/17 24/29/17 13/9/17
f 3/24/18 2/30/18 14/31/18
f 9/21/19 21/32/19 10/2/19
f 6/22/20 18/33/20 7/5/20
f 112/34/21 13/9/21 24/29/21
f 4/11/22 14/31/22 15/35/22
f 10/2/23 22/36/23 11/13/23
f 7/5/24 19/37/24 8/15/24
f 63/83/73 75/90/73 64/86/73
f 60/84/74 72/91/74 61/87/74
f 67/85/75 79/92/75 68/79/75
f 58/89/76 2/93/76 69/94/76
f 64/86/77 76/95/77 65/81/77
f 61/87/78 73/96/78 62/77/78
f 112/97/79 68/79/79 79/92/79
f 58/89/80 70/98/80 59/80/80
f 65/81/81 77/99/81 66/82/81
f 63/83/82 73/96/82 74/100/82
f 60/84/83 70/98/83 71/101/83
f 66/82/84 78/102/84 67/85/84
f 4/11/13 15/35/13 16/25/13
f 11/13/14 22/36/14 23/26/14
f 8/15/15 19/37/15 20/27/15
f 5/18/16 16/25/16 17/28/16
f 12/19/17 23/26/17 24/29/17
f 9/21/19 20/27/19 21/32/19
f 6/22/20 17/28/20 18/33/20
f 4/11/22 3/24/22 14/31/22
f 10/2/23 21/32/23 22/36/23
f 7/5/24 18/33/24 19/37/24
f 63/83/73 74/100/73 75/90/73
f 60/84/74 71/101/74 72/91/74
f 67/85/75 78/102/75 79/92/75
f 64/86/77 75/90/77 76/95/77
f 61/87/78 72/91/78 73/96/78
f 58/89/80 69/94/80 70/98/80
f 65/81/81 76/95/81 77/99/81
f 63/83/82 62/77/82 73/96/82
f 60/84/83 59/80/83 70/98/83
f 66/82/84 77/99/84 78/102/84
